<?xml version="1.0" encoding="UTF-8" standalone="no"?>
<svg
   xmlns:dc="http://purl.org/dc/elements/1.1/"
   xmlns:cc="http://creativecommons.org/ns#"
   xmlns:rdf="http://www.w3.org/1999/02/22-rdf-syntax-ns#"
   xmlns:svg="http://www.w3.org/2000/svg"
   xmlns="http://www.w3.org/2000/svg"
   xmlns:sodipodi="http://sodipodi.sourceforge.net/DTD/sodipodi-0.dtd"
   xmlns:inkscape="http://www.inkscape.org/namespaces/inkscape"
   width="50mm"
   height="50mm"
   viewBox="0 0 50 50"
   version="1.1"
   id="svg8"
   inkscape:version="1.0.1 (3bc2e813f5, 2020-09-07)"
   sodipodi:docname="birdIcon.svg">
  <defs
     id="defs2" />
  <sodipodi:namedview
     id="base"
     pagecolor="#ffffff"
     bordercolor="#666666"
     borderopacity="1.0"
     inkscape:pageopacity="0.0"
     inkscape:pageshadow="2"
     inkscape:zoom="2.2598333"
     inkscape:cx="46.637487"
     inkscape:cy="106.92891"
     inkscape:document-units="mm"
     inkscape:current-layer="g2181"
     inkscape:document-rotation="0"
     showgrid="false"
     inkscape:window-width="1920"
     inkscape:window-height="1000"
     inkscape:window-x="-9"
     inkscape:window-y="-9"
     inkscape:window-maximized="1" />
  <metadata
     id="metadata5">
    <rdf:RDF>
      <cc:Work
         rdf:about="">
        <dc:format>image/svg+xml</dc:format>
        <dc:type
           rdf:resource="http://purl.org/dc/dcmitype/StillImage" />
        <dc:title></dc:title>
      </cc:Work>
    </rdf:RDF>
  </metadata>
  <g
     inkscape:label="Layer 1"
     inkscape:groupmode="layer"
     id="layer1">
    <g
       id="g2181"
       transform="matrix(0.56737343,0,0,0.56737343,137.5533,-159.37174)"
       style="stroke:#e8e8e8;stroke-width:2.70327;stroke-miterlimit:4;stroke-dasharray:none;stroke-opacity:1">
      <path
         id="path2109"
         style="fill:none;fill-opacity:1;stroke:#e8e8e8;stroke-width:10.2171;stroke-linecap:round;stroke-miterlimit:4;stroke-dasharray:none;stroke-opacity:1;paint-order:markers fill stroke"
         d="m -813.33398,1088.8789 c -43.46196,-2.8748 -64.92915,18.8485 -69.86106,53.5937 -1.8122,20.3165 -3.8903,21.4558 -14.6917,28.1231 -8.93046,5.5125 -12.64844,8.027 -12.64844,8.5527 0,0.5285 3.43394,2.825 11.83594,7.9161 6.50934,3.944 13.12545,7.9807 14.70313,8.9707 h 0.002 c 1.46689,0.9206 2.31495,1.3819 3.11719,1.6054 12.46995,76.378 72.62301,134.3041 144.95898,134.3164 h 0.0234 c 81.38218,-2e-4 147.35524,-73.3038 147.35547,-163.7285 -6.1e-4,-3.247 -0.0875,-6.4932 -7.64724,14.2821 -7.55975,20.7754 -37.76864,49.728 -71.14768,49.7296 -33.15794,2e-4 -62.88375,-28.5762 -70.72656,-70.5166 -7.84282,-41.9403 -38.36276,-72.8438 -75.27344,-72.8447 z"
         transform="scale(0.26458333)"
         sodipodi:nodetypes="cccsccccssccccsc" />
      <circle
         style="fill:none;fill-opacity:1;stroke:#e8e8e8;stroke-width:2.70327;stroke-linecap:round;stroke-miterlimit:4;stroke-dasharray:none;stroke-opacity:1;paint-order:markers fill stroke"
         id="path2158"
         cx="-215.00227"
         cy="306.401"
         r="2.5664499" />
      <path
         style="fill:none;stroke:#e8e8e8;stroke-width:2.639;stroke-linecap:round;stroke-linejoin:miter;stroke-miterlimit:4;stroke-dasharray:none;stroke-opacity:1"
         d="m -183.95651,350.64967 v 14.82842"
         id="path2160" />
      <path
         style="fill:none;stroke:#e8e8e8;stroke-width:2.639;stroke-linecap:round;stroke-linejoin:miter;stroke-miterlimit:4;stroke-dasharray:none;stroke-opacity:1"
         d="m -206.47503,350.49193 v 14.82842"
         id="path2160-2" />
    </g>
  </g>
</svg>
