<?xml version="1.0" encoding="UTF-8" standalone="no"?>
<svg
   xmlns:dc="http://purl.org/dc/elements/1.1/"
   xmlns:cc="http://creativecommons.org/ns#"
   xmlns:rdf="http://www.w3.org/1999/02/22-rdf-syntax-ns#"
   xmlns:svg="http://www.w3.org/2000/svg"
   xmlns="http://www.w3.org/2000/svg"
   xmlns:sodipodi="http://sodipodi.sourceforge.net/DTD/sodipodi-0.dtd"
   xmlns:inkscape="http://www.inkscape.org/namespaces/inkscape"
   width="50mm"
   height="50mm"
   viewBox="0 0 50 50"
   version="1.1"
   id="svg8"
   inkscape:version="1.0.1 (3bc2e813f5, 2020-09-07)"
   sodipodi:docname="Chinese_icon.svg">
  <defs
     id="defs2" />
  <sodipodi:namedview
     id="base"
     pagecolor="#ffffff"
     bordercolor="#666666"
     borderopacity="1.0"
     inkscape:pageopacity="0.0"
     inkscape:pageshadow="2"
     inkscape:zoom="2.579347"
     inkscape:cx="55.673564"
     inkscape:cy="139.263"
     inkscape:document-units="mm"
     inkscape:current-layer="g2181"
     inkscape:document-rotation="0"
     showgrid="false"
     inkscape:window-width="1920"
     inkscape:window-height="1000"
     inkscape:window-x="-9"
     inkscape:window-y="-9"
     inkscape:window-maximized="1" />
  <metadata
     id="metadata5">
    <rdf:RDF>
      <cc:Work
         rdf:about="">
        <dc:format>image/svg+xml</dc:format>
        <dc:type
           rdf:resource="http://purl.org/dc/dcmitype/StillImage" />
        <dc:title></dc:title>
      </cc:Work>
    </rdf:RDF>
  </metadata>
  <g
     inkscape:label="Layer 1"
     inkscape:groupmode="layer"
     id="layer1">
    <g
       id="g2181"
       transform="matrix(0.56737343,0,0,0.56737343,137.5533,-159.37174)"
       style="stroke:#e8e8e8;stroke-width:2.70327;stroke-miterlimit:4;stroke-dasharray:none;stroke-opacity:1">
      <path
         style="fill:#e8e8e8;fill-opacity:1;stroke:none;stroke-width:1.55601;stroke-linecap:round;stroke-miterlimit:4;stroke-dasharray:none;paint-order:markers fill stroke"
         id="path841"
         d="m -203.41846,286.16936 c -0.0468,0.26261 -0.10425,0.52305 -0.15482,0.78497 -0.12452,0.66538 -0.22202,1.33573 -0.32109,2.00565 -0.10942,0.75532 -0.21321,1.51144 -0.32675,2.2661 -0.12218,0.84681 -0.26086,1.69075 -0.39676,2.5352 -0.14725,0.94584 -0.32077,1.8869 -0.50025,2.82652 -0.0901,0.44109 -0.18445,0.8812 -0.27787,1.32153 -1.28563,6.05902 6.88521,7.9657 8.17082,1.90667 v 0 c 0.10641,-0.50146 0.21415,-1.00266 0.31494,-1.50542 0.19583,-1.02688 0.38512,-2.05534 0.54637,-3.08891 0.14077,-0.87523 0.28433,-1.74994 0.41114,-2.62759 0.11467,-0.76236 0.22012,-1.52608 0.3302,-2.28919 0.0798,-0.53965 0.15711,-1.07982 0.25494,-1.61632 0.0643,-0.33791 0.1414,-0.67318 0.19571,-1.01318 1.01546,-6.11518 -7.2311,-7.62121 -8.24658,-1.50603 z" />
      <path
         style="fill:#e8e8e8;fill-opacity:1;stroke:none;stroke-width:1.51489;stroke-linecap:round;stroke-miterlimit:4;stroke-dasharray:none;paint-order:markers fill stroke"
         id="path845"
         d="m -238.00224,309.23437 c 0.52074,0.11441 1.05091,0.15376 1.58002,0.18479 0.84013,0.0336 1.68101,0.0346 2.52159,0.0306 1.3215,-0.0367 2.64304,-0.0525 3.96496,-0.0509 1.9737,0.0218 3.9471,0.0542 5.92097,0.0507 2.82801,-0.0152 5.65521,-0.10043 8.48181,-0.1948 3.45645,-0.11996 6.91133,-0.28746 10.36661,-0.44154 3.97608,-0.17875 7.95171,-0.36883 11.92721,-0.56213 4.293,-0.21478 8.58559,-0.43916 12.87796,-0.66846 4.48551,-0.23221 8.97019,-0.48375 13.45469,-0.7387 2.78647,-0.15916 5.57283,-0.32091 8.35919,-0.48281 5.60255,-0.32552 5.18645,-9.09175 -0.41609,-8.76623 v 0 c -2.78335,0.16173 -5.56672,0.32333 -8.35021,0.4823 -4.47634,0.25448 -8.95286,0.50555 -13.43023,0.73733 -4.28092,0.2287 -8.56209,0.45247 -12.84363,0.66672 -3.96591,0.19283 -7.93195,0.38247 -11.89842,0.56078 -3.42858,0.1529 -6.85675,0.31916 -10.28646,0.43841 -2.75141,0.092 -5.50342,0.17526 -8.25623,0.19084 -1.96651,0.004 -3.93255,-0.0306 -5.89897,-0.0507 -1.33644,-9.7e-4 -2.67268,0.0119 -4.00872,0.051 -0.69777,0.004 -1.3957,0.003 -2.09323,-0.0199 -0.17199,-0.007 -0.34572,-0.0108 -0.51525,-0.0462 -5.51478,-1.14032 -6.97237,7.48859 -1.45757,8.62892 z" />
      <path
         style="fill:#e8e8e8;fill-opacity:1;stroke:none;stroke-width:1.49504;stroke-linecap:round;stroke-miterlimit:4;stroke-dasharray:none;paint-order:markers fill stroke"
         id="path847"
         d="m -182.92929,304.20971 c -0.19946,0.44089 -0.36543,0.89341 -0.57441,1.33037 -0.54029,1.08845 -1.09912,2.16799 -1.67969,3.23678 -0.93984,1.69643 -1.91506,3.37387 -2.91076,5.04004 -1.24531,2.05622 -2.59921,4.04777 -3.98028,6.02015 -1.62449,2.32395 -3.37405,4.5614 -5.15328,6.77533 -1.90148,2.3612 -3.9452,4.60737 -6.05409,6.7954 -2.1436,2.18527 -4.35789,4.30389 -6.59371,6.40025 -2.06035,1.91005 -4.18718,3.75095 -6.33456,5.56837 -1.94816,1.63864 -3.97939,3.17977 -6.03541,4.68848 -1.77975,1.30403 -3.612,2.53823 -5.457,3.75351 -1.55103,1.01167 -3.13159,1.98001 -4.73761,2.90752 -0.95745,0.54741 -1.93192,1.06606 -2.90671,1.58373 -5.18922,2.75638 -1.16281,9.86121 4.0264,7.10483 v 0 c 1.06399,-0.56527 2.12728,-1.13217 3.17184,-1.73071 1.74702,-1.01085 3.46829,-2.06299 5.15531,-3.16555 1.96288,-1.29341 3.91166,-2.60766 5.80498,-3.99558 2.21067,-1.6231 4.39376,-3.28217 6.48797,-5.0454 2.25419,-1.90842 4.4866,-3.84173 6.6486,-5.8482 2.33755,-2.19228 4.65246,-4.40799 6.89207,-6.6946 2.27732,-2.36609 4.48546,-4.79403 6.53922,-7.3466 1.89079,-2.35415 3.74911,-4.7339 5.47559,-7.20479 1.49162,-2.13192 2.95308,-4.28509 4.29648,-6.50845 1.05227,-1.76151 2.08315,-3.53486 3.07531,-5.32889 0.65191,-1.20255 1.28225,-2.41591 1.88506,-3.6423 0.19118,-0.40907 0.2097,-0.4379 0.38175,-0.8478 0.02,-0.0476 0.13391,-0.33487 0.16695,-0.42114 0.002,-0.006 0.0102,-0.0273 0.006,-0.0209 -0.0169,0.0315 -0.0313,0.064 -0.0469,0.0961 2.55631,-5.16837 -4.99344,-8.66833 -7.54975,-3.49997 z" />
      <path
         style="fill:#e8e8e8;fill-opacity:1;stroke:none;stroke-width:1.55601;stroke-linecap:round;stroke-miterlimit:4;stroke-dasharray:none;paint-order:markers fill stroke"
         id="path849"
         d="m -224.32478,313.0172 c -0.0259,-0.0368 -0.0912,-0.15404 -0.0779,-0.11043 0.0408,0.13413 0.14603,0.23621 0.21868,0.35455 0.20304,0.33074 0.40688,0.66092 0.61033,0.99139 0.81195,1.31292 1.64303,2.6126 2.45855,3.92307 1.09094,1.7899 2.22348,3.55034 3.38987,5.2869 1.35263,2.02043 2.77641,3.98648 4.2382,5.92098 1.54147,2.01092 3.17223,3.94299 4.81089,5.86655 1.63812,1.94011 3.33511,3.82308 5.06958,5.6683 1.712,1.79923 3.52306,3.48875 5.36191,5.14286 1.6816,1.5047 3.40177,2.9608 5.13877,4.39427 1.60766,1.3284 3.26748,2.58405 4.93869,3.82227 1.44665,1.0565 2.89877,2.10479 4.35824,3.14172 1.22957,0.87444 2.46542,1.73913 3.71132,2.58781 1.02014,0.67921 2.03754,1.36301 3.05837,2.04108 0.85567,0.56075 1.71273,1.11919 2.57462,1.66937 0.74427,0.46939 1.49752,0.92312 2.25405,1.3704 5.15669,3.04713 9.26586,-4.60067 4.10919,-7.6478 v 0 c -0.67526,-0.39874 -1.34726,-0.80384 -2.01197,-1.22168 -0.81937,-0.52269 -1.63371,-1.05402 -2.44731,-1.5865 -0.99402,-0.66005 -1.98434,-1.32624 -2.97793,-1.98697 -1.20051,-0.8174 -2.39079,-1.65103 -3.57554,-2.49335 -1.41426,-1.00468 -2.82123,-2.02064 -4.22336,-3.04388 -1.55371,-1.15088 -3.09781,-2.31653 -4.59235,-3.55136 -1.64485,-1.35697 -3.27376,-2.73538 -4.86633,-4.15958 -1.66245,-1.49407 -3.30095,-3.0187 -4.85028,-4.64242 -1.63872,-1.74191 -3.24059,-3.52086 -4.7875,-5.35318 -1.52955,-1.79518 -3.05327,-3.59691 -4.49408,-5.47194 -1.36489,-1.80397 -2.69245,-3.63893 -3.95483,-5.52362 -1.10987,-1.6508 -2.18508,-3.326 -3.22241,-5.02804 -0.80807,-1.29833 -1.63097,-2.58632 -2.43604,-3.8867 -0.3524,-0.57238 -0.69943,-1.14878 -1.06583,-1.71146 -3.53142,-4.98139 -10.24903,0.256 -6.71761,5.23738 z" />
    </g>
  </g>
</svg>
