<?xml version="1.0" encoding="UTF-8" standalone="no"?>
<svg
   xmlns:dc="http://purl.org/dc/elements/1.1/"
   xmlns:cc="http://creativecommons.org/ns#"
   xmlns:rdf="http://www.w3.org/1999/02/22-rdf-syntax-ns#"
   xmlns:svg="http://www.w3.org/2000/svg"
   xmlns="http://www.w3.org/2000/svg"
   xmlns:sodipodi="http://sodipodi.sourceforge.net/DTD/sodipodi-0.dtd"
   xmlns:inkscape="http://www.inkscape.org/namespaces/inkscape"
   width="50mm"
   height="50mm"
   viewBox="0 0 50 50"
   version="1.1"
   id="svg8"
   inkscape:version="1.0.1 (3bc2e813f5, 2020-09-07)"
   sodipodi:docname="Todo_icon.svg">
  <defs
     id="defs2" />
  <sodipodi:namedview
     id="base"
     pagecolor="#ffffff"
     bordercolor="#666666"
     borderopacity="1.0"
     inkscape:pageopacity="0.0"
     inkscape:pageshadow="2"
     inkscape:zoom="1.680144"
     inkscape:cx="71.944647"
     inkscape:cy="37.142228"
     inkscape:document-units="mm"
     inkscape:current-layer="g2181"
     inkscape:document-rotation="0"
     showgrid="false"
     inkscape:window-width="1920"
     inkscape:window-height="1000"
     inkscape:window-x="-9"
     inkscape:window-y="-9"
     inkscape:window-maximized="1" />
  <metadata
     id="metadata5">
    <rdf:RDF>
      <cc:Work
         rdf:about="">
        <dc:format>image/svg+xml</dc:format>
        <dc:type
           rdf:resource="http://purl.org/dc/dcmitype/StillImage" />
        <dc:title />
      </cc:Work>
    </rdf:RDF>
  </metadata>
  <g
     inkscape:label="Layer 1"
     inkscape:groupmode="layer"
     id="layer1">
    <g
       id="g2181"
       transform="matrix(0.56737343,0,0,0.56737343,137.5533,-159.37174)"
       style="stroke:#e8e8e8;stroke-width:2.70327;stroke-miterlimit:4;stroke-dasharray:none;stroke-opacity:1">
      <path
         style="fill:#e8e8e8;stroke:none;stroke-width:1.73049;stroke-linecap:round;stroke-miterlimit:4;stroke-dasharray:none;stroke-opacity:1;paint-order:stroke markers fill"
         d="m -229.77872,327.35083 c -1.09124,-0.91604 -2.34675,-1.8916 -2.79001,-2.16794 l -0.80597,-0.50245 0.0864,-0.76309 c 0.0476,-0.41969 0.14059,-1.34686 0.20672,-2.06035 0.1675,-1.80693 0.73746,-2.72961 2.01609,-3.26371 0.49882,-0.20837 7.3938,-1.38803 10.2912,-1.76072 7.70747,-0.99138 23.74469,-1.38298 29.04907,-0.70932 2.74098,0.34811 6.12954,1.05864 6.12954,1.28526 0,0.045 -0.83674,1.41443 -1.85944,3.04324 l -1.85944,2.9615 -0.62062,-0.10155 c -2.97749,-0.48737 -4.19079,-0.57463 -9.01463,-0.64837 -6.46696,-0.0988 -13.7196,0.20162 -19.45889,0.8061 -3.03971,0.32014 -7.99053,1.13071 -8.11347,1.32835 -0.0555,0.0893 -0.14667,0.95792 -0.20247,1.93026 -0.12767,2.2235 -0.15072,2.30376 -0.6607,2.2952 -0.29243,-0.006 -0.97633,-0.48278 -2.39346,-1.67238 z"
         id="path846" />
      <path
         style="fill:#e8e8e8;stroke:none;stroke-width:1.73049;stroke-linecap:round;stroke-miterlimit:4;stroke-dasharray:none;stroke-opacity:1;paint-order:stroke markers fill"
         d="m -207.80165,368.61843 c -0.67151,-0.0271 -3.31562,-0.12291 -5.87581,-0.21274 -7.53819,-0.26462 -11.02209,-0.59608 -13.71566,-1.30491 -3.40179,-0.89521 -5.25478,-2.62174 -6.05225,-5.63921 -0.32169,-1.21717 -0.51687,-6.03141 -0.52442,-12.93444 l -0.006,-5.45613 h 0.35168 c 0.23051,0 1.41354,0.88082 3.43349,2.55637 l 3.0818,2.55638 0.008,3.81545 c 0.009,4.44929 0.18149,7.59443 0.44952,8.24141 0.10438,0.25182 0.21835,0.38161 0.25341,0.28842 0.0459,-0.12196 0.30794,-0.11272 0.93512,0.0331 2.24121,0.52098 6.61007,0.84787 15.06605,1.12731 8.85181,0.2925 17.25897,0.18017 23.33886,-0.31181 2.00712,-0.16241 2.4007,-0.24721 2.07667,-0.44748 -0.13366,-0.0826 -0.13969,-0.26649 -0.0234,-0.70586 0.29308,-1.10691 0.46705,-4.23449 0.63581,-11.43012 l 0.16823,-7.17309 1.94438,-2.97606 c 1.06943,-1.63684 2.45088,-3.78304 3.06986,-4.76935 1.01504,-1.61732 1.16884,-1.79325 1.56741,-1.79325 h 0.44195 l -0.0936,4.31148 c -0.0516,2.37131 -0.16132,7.64237 -0.24403,11.71349 -0.17029,8.382 -0.33148,11.16911 -0.77179,13.34506 -0.73533,3.63384 -2.53678,5.7287 -5.5152,6.41354 -1.94824,0.44796 -7.40454,0.72109 -15.22508,0.76212 -4.15505,0.0218 -8.10405,0.0175 -8.77557,-0.009 z"
         id="path850" />
      <path
         style="fill:#e8e8e8;stroke:none;stroke-width:1.73049;stroke-linecap:round;stroke-miterlimit:4;stroke-dasharray:none;stroke-opacity:1;paint-order:stroke markers fill"
         d="m -208.64103,358.85871 c -2.10263,-0.54399 -4.91602,-2.3233 -9.84392,-6.2257 -10.82871,-8.57526 -19.86849,-16.32832 -21.82143,-18.7154 -1.04887,-1.28203 -1.30033,-1.87953 -1.3002,-3.08936 3.8e-4,-2.91732 3.18615,-5.60591 5.91733,-4.99384 1.39663,0.313 2.49898,1.13963 9.64967,7.2361 11.89014,10.13721 18.79408,15.52154 20.19325,15.7486 0.45834,0.0743 0.54756,0.028 0.82563,-0.4286 0.17143,-0.28161 1.05041,-1.33615 1.95329,-2.34343 1.97844,-2.20728 3.99658,-4.70271 5.80109,-7.17309 2.75281,-3.76862 8.60799,-12.78225 15.51535,-23.88482 5.91979,-9.5152 6.93832,-11.22076 11.02812,-18.46688 4.93884,-8.75046 6.83752,-11.58333 8.32529,-12.42152 0.75534,-0.42555 0.96934,-0.47301 2.13668,-0.47384 1.10876,-7.5e-4 1.42196,0.0604 2.15566,0.42064 1.01842,0.50013 2.16492,1.67206 2.61594,2.67396 0.23355,0.51879 0.32647,1.03976 0.3326,1.86459 0.008,1.12011 -0.0122,1.18388 -0.96548,2.97605 -4.52041,8.49991 -20.90977,35.61651 -28.33163,46.87543 -8.06918,12.24091 -14.43661,19.03228 -19.14036,20.41474 -1.04415,0.30687 -3.8716,0.31044 -5.04688,0.007 z"
         id="path852" />
    </g>
  </g>
</svg>
